<?xml version="1.0" encoding="UTF-8"?>
<svg id="Layer_1" data-name="Layer 1" xmlns="http://www.w3.org/2000/svg" viewBox="0 0 1417.32 1417.32">
  <defs>
    <style>
      .cls-1 {
        fill: #fff;
      }
    </style>
  </defs>
  <g>
    <path class="cls-1" d="M625.14,660.62c22.76-27.65,34.14-65.07,34.14-112.27v-.42c0-47.48-11.38-84.97-34.14-112.48-22.77-27.5-54.25-41.26-94.47-41.26s-71.43,13.76-94.47,41.26c-23.04,27.51-34.56,65-34.56,112.48v.42c0,47.2,11.52,84.62,34.56,112.27,23.04,27.65,54.52,41.47,94.47,41.47s71.7-13.82,94.47-41.47ZM486.48,619.36c-10.47-16.89-15.71-40.56-15.71-71.01v-.42c0-30.72,5.24-54.46,15.71-71.22,10.47-16.76,25.2-25.14,44.2-25.14s33.72,8.38,44.2,25.14c10.47,16.76,15.71,40.5,15.71,71.22v.42c0,30.44-5.24,54.11-15.71,71.01-10.47,16.9-25.21,25.34-44.2,25.34s-33.72-8.44-44.2-25.34Z"/>
    <path class="cls-1" d="M981.55,756.5c-22.77-27.5-54.25-41.26-94.47-41.26s-71.43,13.76-94.47,41.26c-23.04,27.51-34.56,64.87-34.56,112.06v.42c0,47.48,11.52,85.04,34.56,112.69,23.04,27.65,54.52,41.47,94.47,41.47s71.7-13.82,94.47-41.47c22.76-27.65,34.14-65.21,34.14-112.69v-.42c0-47.19-11.38-84.55-34.14-112.06ZM946.99,869.4c0,30.44-5.24,54.11-15.71,71.01-10.47,16.9-25.21,25.34-44.2,25.34s-33.72-8.44-44.2-25.34c-10.47-16.89-15.71-40.56-15.71-71.01v-.42c0-30.72,5.24-54.46,15.71-71.22,10.47-16.76,25.2-25.14,44.2-25.14s33.72,8.38,44.2,25.14c10.47,16.76,15.71,40.5,15.71,71.22v.42Z"/>
    <path class="cls-1" d="M862.98,416.01l-354.5,555.42c-10.43,16.34,1.31,37.74,20.69,37.74h.77c8.39,0,16.19-4.28,20.7-11.36l353.73-555.42c10.4-16.34-1.33-37.72-20.7-37.72h0c-8.38,0-16.18,4.27-20.69,11.34Z"/>
  </g>
  <path class="cls-1" d="M708.66,1392.69c-377.17,0-684.04-306.84-684.04-684.01S331.49,24.63,708.66,24.63s684.04,306.87,684.04,684.04-306.87,684.01-684.04,684.01ZM708.66,80.92c-346.14,0-627.75,281.61-627.75,627.75s281.61,627.73,627.75,627.73,627.75-281.61,627.75-627.73S1054.8,80.92,708.66,80.92Z"/>
</svg>