<?xml version="1.0" encoding="UTF-8"?>
<svg id="Layer_1" data-name="Layer 1" xmlns="http://www.w3.org/2000/svg" viewBox="0 0 1417.32 1417.32">
  <defs>
    <style>
      .cls-1 {
        fill: #fff;
      }
    </style>
  </defs>
  <path class="cls-1" d="M683.47,1088.62c-5.91,0-11.71-2.28-16.09-6.57l-311.89-305.84c-6.88-6.75-8.82-17.08-4.85-25.86,56.89-125.83,129.08-239.7,214.57-338.45,68.48-79.1,145.59-148.72,229.19-206.93,138.17-96.2,246.88-128.76,258.11-131.96,219.46-76.7,325.93-32.51,330.36-30.59,7.18,3.11,12.28,9.67,13.53,17.39,23.35,143.79-17.53,277.97-20.05,286.02-36.09,121.17-94.55,235.55-173.78,339.99-63.25,83.38-139.79,160.61-227.48,229.55-149.27,117.35-277.7,169.44-283.09,171.6-2.77,1.11-5.66,1.65-8.53,1.65ZM399.18,754.71l289.33,283.72c36.62-16.49,142.48-67.99,259.35-160.08,132.33-104.27,306.47-283.6,384.51-545.78.03-.12.07-.24.11-.35.39-1.23,37.62-122.11,20.62-251.09-11.56-2.89-31.74-6.59-60.68-7.15-44.84-.87-120.33,5.82-225.41,42.63-.49.17-.98.33-1.48.46-1.06.3-109.89,31.24-246.63,126.82-123.73,86.49-295.95,244.94-419.72,510.82Z"/>
  <path class="cls-1" d="M469.38,601.88c-.97,0-1.94-.06-2.92-.19l-288.77-36.7c-7.13-.91-13.43-5.1-17.02-11.34-3.58-6.23-4.04-13.79-1.24-20.41,53.7-126.75,132.25-210.88,233.46-250.08,64.02-24.79,137.81-30.9,213.41-17.68,56.91,9.96,94.93,27.26,96.52,27.99,11.52,5.3,16.57,18.94,11.27,30.47-5.3,11.52-18.93,16.57-30.45,11.28-.87-.39-35.67-15.99-86.77-24.74-46.71-8-117.21-11.77-187.82,15.7-81.57,31.73-146.98,97.99-194.74,197.16l257.95,32.78c12.58,1.6,21.49,13.1,19.89,25.68-1.47,11.6-11.36,20.08-22.76,20.08Z"/>
  <path class="cls-1" d="M902.27,1259.07c-4.4,0-8.77-1.26-12.56-3.74-6.49-4.24-10.41-11.47-10.41-19.23v-295.17c0-12.68,10.28-22.97,22.97-22.97s22.97,10.28,22.97,22.97v259.03c104.05-52.14,171.85-120.71,201.76-204.18,46.06-128.55-13.88-249.41-14.5-250.62-5.73-11.32-1.21-25.14,10.11-30.87,11.32-5.73,25.14-1.21,30.87,10.11.73,1.43,17.91,35.71,28.55,87.91,14.12,69.23,10.04,138.03-11.79,198.96-37.32,104.14-124.37,186.86-258.74,245.85-2.95,1.3-6.1,1.94-9.23,1.94Z"/>
  <path class="cls-1" d="M551.7,1193.79c-.28,0-.56,0-.84-.02-8.22-.3-15.65-4.97-19.48-12.25-79.37-150.69-286.36-270.02-288.44-271.21-7.28-4.15-11.72-11.94-11.58-20.33.14-8.38,4.83-16.02,12.25-19.94l162.79-85.91c11.22-5.92,25.11-1.63,31.03,9.59,5.92,11.22,1.63,25.11-9.59,31.03l-127.31,67.19c21.88,14.22,52.18,35.04,85.42,61.21,73.14,57.57,128.92,115.74,166.33,173.37l70.68-113.28c6.71-10.76,20.88-14.04,31.64-7.33,10.76,6.71,14.04,20.88,7.33,31.65l-90.73,145.42c-4.2,6.74-11.58,10.81-19.48,10.81Z"/>
  <path class="cls-1" d="M339.67,1389.3c-3.08,0-6.21-.62-9.21-1.94-11.62-5.1-16.9-18.64-11.81-30.26l90.39-206.06c5.1-11.62,18.64-16.91,30.26-11.81,11.62,5.1,16.9,18.64,11.81,30.26l-90.39,206.06c-3.78,8.61-12.21,13.75-21.05,13.75Z"/>
  <path class="cls-1" d="M36.69,1052.35c-10.83,0-20.47-7.7-22.55-18.73-2.34-12.47,5.86-24.47,18.33-26.82l233.8-43.94c12.47-2.34,24.47,5.86,26.82,18.33,2.34,12.47-5.86,24.47-18.33,26.82l-233.8,43.94c-1.43.27-2.86.4-4.27.4Z"/>
  <path class="cls-1" d="M95.96,1346.11c-6.16,0-12.3-2.46-16.83-7.33-8.64-9.29-8.11-23.82,1.18-32.46l257.49-239.36c9.29-8.64,23.82-8.11,32.46,1.18,8.64,9.29,8.11,23.82-1.18,32.46l-257.49,239.36c-4.42,4.11-10.04,6.15-15.63,6.15Z"/>
  <path class="cls-1" d="M1354.39,362.08c-5.99,0-11.98-2.33-16.48-6.97l-250.95-258.47c-8.84-9.1-8.62-23.64.48-32.48,9.1-8.84,23.64-8.62,32.48.48l250.95,258.47c8.84,9.1,8.62,23.64-.48,32.48-4.46,4.33-10.23,6.49-16,6.49Z"/>
  <path class="cls-1" d="M1035.25,525.28c-76.66,0-139.02-62.36-139.02-139.02s62.36-139.02,139.02-139.02,139.02,62.36,139.02,139.02-62.36,139.02-139.02,139.02ZM1035.25,293.18c-51.33,0-93.08,41.76-93.08,93.08s41.76,93.08,93.08,93.08,93.08-41.76,93.08-93.08-41.76-93.08-93.08-93.08Z"/>
</svg>