<?xml version="1.0" encoding="UTF-8"?>
<svg id="Layer_1" data-name="Layer 1" xmlns="http://www.w3.org/2000/svg" viewBox="0 0 1417.32 1417.32">
  <defs>
    <style>
      .cls-1 {
        fill: #fff;
      }
    </style>
  </defs>
  <path class="cls-1" d="M708.66,1392.69c-3.02,0-6.03-.64-8.84-1.92-6.19-2.82-153.36-70.18-303.05-180.17-88.48-65.01-159.13-131.38-209.99-197.26-65.01-84.21-97.96-168.16-97.96-249.52V239.17c0-5.88,2.42-11.49,6.69-15.53,4.27-4.04,10-6.17,15.88-5.81,89.74,5.01,179.02-4.04,265.36-26.93,116.28-30.83,223.45-85.19,318.53-161.55,7.82-6.28,18.95-6.28,26.77,0,95.08,76.37,202.25,130.72,318.53,161.55,86.34,22.89,175.62,31.95,265.36,26.93,5.87-.34,11.61,1.77,15.88,5.81,4.27,4.04,6.69,9.66,6.69,15.53v524.65c0,81.36-32.96,165.32-97.96,249.53-50.86,65.88-121.51,132.25-209.99,197.26-149.69,109.99-296.85,177.35-303.05,180.17-2.8,1.27-5.82,1.91-8.84,1.91ZM131.57,261.49v502.33c0,296.18,503.67,548.66,577.09,583.86,73.42-35.21,577.09-287.68,577.09-583.86v-502.33c-86.64,2.66-172.68-7.15-256.14-29.27-116.66-30.93-224.56-84.39-320.96-158.99-96.4,74.59-204.3,128.06-320.96,158.99-83.45,22.13-169.51,31.95-256.14,29.27Z"/>
  <path class="cls-1" d="M978,424.21s-203.03,242.21-288.69,344.4c-17.91-28.1-36.66-55.68-56.24-82.69-24.01-33.43-71.63-40-103.77-14.27-31.28,24.9-36.45,70.43-11.56,101.71,38.95,48.66,74.39,100.17,107.5,153.12,25.02,38.62,83.92,38.87,109.17.18,0,0,305.63-455.87,305.63-455.87,25.79-41.69-29.44-82.99-62.03-46.58Z"/>
</svg>