<?xml version="1.0" encoding="UTF-8"?>
<svg id="Layer_1" data-name="Layer 1" xmlns="http://www.w3.org/2000/svg" viewBox="0 0 1417.32 1417.32">
  <defs>
    <style>
      .cls-1 {
        fill: #fff;
      }
    </style>
  </defs>
  <path class="cls-1" d="M708.66,102.75c81.84,0,161.18,16.01,235.82,47.58,72.14,30.51,136.95,74.21,192.62,129.89,55.67,55.67,99.37,120.48,129.89,192.62,31.57,74.64,47.58,153.99,47.58,235.82s-16.01,161.18-47.58,235.82c-30.51,72.14-74.21,136.95-129.89,192.62-55.67,55.67-120.48,99.37-192.62,129.89-74.64,31.57-153.99,47.58-235.82,47.58s-161.18-16.01-235.82-47.58c-72.14-30.51-136.95-74.21-192.62-129.89-55.67-55.67-99.37-120.48-129.89-192.62-31.57-74.64-47.58-153.99-47.58-235.82s16.01-161.18,47.58-235.82c30.51-72.14,74.21-136.95,129.89-192.62,55.67-55.67,120.48-99.37,192.62-129.89,74.64-31.57,153.99-47.58,235.82-47.58M708.66,16.96C339.56,16.96,37.98,306.07,18.02,670.19c-22.52,410.73,318.39,751.64,729.12,729.12,364.12-19.96,653.22-321.54,653.22-690.64S1090.68,16.96,708.66,16.96h0Z"/>
  <circle class="cls-1" cx="366.61" cy="667.02" r="100.4"/>
  <circle class="cls-1" cx="1050.72" cy="667.02" r="100.4"/>
  <path class="cls-1" d="M526.44,830.5h364.45c1.91,0,3.46,1.55,3.46,3.46v39.92c0,92.76-75.31,168.07-168.07,168.07h-35.21c-92.77,0-168.1-75.32-168.1-168.1v-39.89c0-1.91,1.55-3.46,3.46-3.46Z"/>
</svg>