<?xml version="1.0" encoding="UTF-8"?>
<svg id="katman_1" xmlns="http://www.w3.org/2000/svg" version="1.1" xmlns:xlink="http://www.w3.org/1999/xlink" viewBox="0 0 841.89 168.03">
  <!-- Generator: Adobe Illustrator 29.3.1, SVG Export Plug-In . SVG Version: 2.1.0 Build 151)  -->
  <defs>
    <style>
      .st0 {
        fill: url(#Degradado_sin_nombre_20095);
      }

      .st1 {
        fill: url(#Degradado_sin_nombre_20098);
      }

      .st2 {
        fill: url(#Degradado_sin_nombre_20096);
      }

      .st3 {
        fill: url(#Degradado_sin_nombre_20094);
      }

      .st4 {
        fill: url(#Degradado_sin_nombre_20097);
      }

      .st5 {
        fill: url(#Degradado_sin_nombre_20091);
      }

      .st6 {
        fill: url(#Degradado_sin_nombre_2009);
      }

      .st7 {
        fill: url(#Degradado_sin_nombre_20093);
      }

      .st8 {
        fill: url(#Degradado_sin_nombre_20092);
      }
    </style>
    <linearGradient id="Degradado_sin_nombre_2009" data-name="Degradado sin nombre 2009" x1="160.8" y1="93.3" x2="940.87" y2="21.47" gradientUnits="userSpaceOnUse">
      <stop offset="0" stop-color="#02a083"/>
      <stop offset=".2" stop-color="#0a8581"/>
      <stop offset=".55" stop-color="#175d7f"/>
      <stop offset=".83" stop-color="#1f457d"/>
      <stop offset="1" stop-color="#223c7d"/>
    </linearGradient>
    <linearGradient id="Degradado_sin_nombre_20091" data-name="Degradado sin nombre 2009" x1="163.09" y1="118.15" x2="943.16" y2="46.32" xlink:href="#Degradado_sin_nombre_2009"/>
    <linearGradient id="Degradado_sin_nombre_20092" data-name="Degradado sin nombre 2009" x1="160.44" y1="89.4" x2="940.51" y2="17.57" xlink:href="#Degradado_sin_nombre_2009"/>
    <linearGradient id="Degradado_sin_nombre_20093" data-name="Degradado sin nombre 2009" x1="162.84" y1="115.49" x2="942.91" y2="43.66" xlink:href="#Degradado_sin_nombre_2009"/>
    <linearGradient id="Degradado_sin_nombre_20094" data-name="Degradado sin nombre 2009" x1="168.6" y1="140.87" x2="948.67" y2="69.03" xlink:href="#Degradado_sin_nombre_2009"/>
    <linearGradient id="Degradado_sin_nombre_20095" data-name="Degradado sin nombre 2009" x1="161.28" y1="135.91" x2="941.35" y2="64.08" xlink:href="#Degradado_sin_nombre_2009"/>
    <linearGradient id="Degradado_sin_nombre_20096" data-name="Degradado sin nombre 2009" x1="151.44" y1="161.01" x2="931.51" y2="89.18" xlink:href="#Degradado_sin_nombre_2009"/>
    <linearGradient id="Degradado_sin_nombre_20097" data-name="Degradado sin nombre 2009" x1="-63.6" y1="156.53" x2="279.9" y2="-18.65" xlink:href="#Degradado_sin_nombre_2009"/>
    <linearGradient id="Degradado_sin_nombre_20098" data-name="Degradado sin nombre 2009" x1="-63.61" y1="156.53" x2="279.9" y2="-18.66" xlink:href="#Degradado_sin_nombre_2009"/>
  </defs>
  <g>
    <path class="st6" d="M225.62,93.51c2.78,9.73,10.43,15.82,20.51,15.82,5.56,0,10.43-1.04,15.12-3.48,3.65-1.74,6.6-2.96,10.08-2.96,6.26,0,10.95,4.69,10.95,10.95,0,14.95-25.03,18.08-35.81,18.08-28.33,0-48.15-19.12-48.15-46.41s18.42-46.41,45.36-46.41,43.97,18.42,43.97,42.41c0,9.39-6.43,11.99-12.86,11.99h-49.19ZM225.79,76.82h36.15c-1.74-9.04-8.69-14.95-17.9-14.95s-15.64,5.56-18.25,14.95Z"/>
    <path class="st5" d="M298.97,85.86c0-27.46,19.64-46.75,47.45-46.75s47.8,19.29,47.8,46.75-17.38,46.41-41.89,46.41c-9.91,0-18.42-3.13-25.03-8.69v29.03c0,7.82-6.43,14.08-14.08,14.08s-14.25-6.26-14.25-14.08v-66.74ZM326.78,85.86c0,12.51,8.17,21.38,19.64,21.38s19.99-8.86,19.99-21.38-8.17-21.73-19.99-21.73-19.64,8.86-19.64,21.73Z"/>
    <path class="st8" d="M422.55,0c8.69,0,15.82,7.13,15.82,15.82s-7.13,15.82-15.82,15.82-15.99-7.13-15.99-15.82,7.13-15.82,15.99-15.82ZM408.29,53.36c0-7.65,6.43-14.08,14.43-14.08s13.9,6.43,13.9,14.08v72.13c0,2.26-1.91,4.17-4,4.17h-20.16c-2.26,0-4.17-1.91-4.17-4.17V53.36Z"/>
    <path class="st7" d="M509.97,80.13c0-9.73-6.26-16.51-15.12-16.51s-15.12,6.78-15.12,16.51v45.36c0,2.26-1.91,4.17-4,4.17h-20.16c-2.26,0-4.17-1.91-4.17-4.17V53.36c0-7.65,6.43-14.08,14.43-14.08,6.26,0,11.82,4.34,13.56,10.43,6.08-6.78,15.12-10.6,25.55-10.6,19.64,0,33.37,14.95,33.37,36.5v49.88c0,2.26-1.91,4.17-4.17,4.17h-19.99c-2.26,0-4.17-1.91-4.17-4.17v-45.36Z"/>
    <g>
      <path class="st3" d="M622.55,45.06c7.15,3.97,12.75,9.4,16.8,16.3,4.05,6.9,6.08,14.59,6.08,23.06s-1.89,16.16-5.66,23.06c-3.77,6.9-8.95,12.31-15.54,16.22-6.59,3.91-13.93,5.87-22.04,5.87-6.53,0-12.61-1.3-18.24-3.91-5.63-2.61-10.41-6.25-14.35-10.92v44.01c0,2.5-.79,4.51-2.36,6.03-1.58,1.52-3.66,2.28-6.25,2.28s-4.53-.76-6.16-2.28c-1.63-1.52-2.45-3.53-2.45-6.03v-74.32c0-8.48,2.05-16.16,6.16-23.06,4.11-6.9,9.68-12.33,16.72-16.3,7.03-3.97,14.89-5.95,23.56-5.95s16.58,1.98,23.73,5.95ZM614.1,110.9c4.56-2.66,8.16-6.3,10.81-10.92,2.64-4.62,3.97-9.8,3.97-15.57s-1.32-10.97-3.97-15.65c-2.65-4.67-6.25-8.34-10.81-11-4.56-2.66-9.65-3.99-15.28-3.99s-10.72,1.33-15.28,3.99c-4.56,2.66-8.14,6.33-10.72,11-2.59,4.67-3.88,9.89-3.88,15.65s1.29,10.95,3.88,15.57c2.59,4.62,6.16,8.26,10.72,10.92,4.56,2.66,9.65,3.99,15.28,3.99s10.72-1.33,15.28-3.99Z"/>
      <path class="st0" d="M729.67,45.06c7.04,3.97,12.61,9.4,16.72,16.3,4.11,6.9,6.16,14.59,6.16,23.06v36.35c0,2.39-.82,4.38-2.45,5.95-1.63,1.58-3.69,2.36-6.16,2.36s-4.53-.79-6.16-2.36c-1.63-1.57-2.45-3.56-2.45-5.95v-6.03c-3.94,4.67-8.73,8.31-14.35,10.92-5.63,2.61-11.71,3.91-18.24,3.91-8.11,0-15.45-1.96-22.04-5.87-6.59-3.91-11.77-9.32-15.54-16.22-3.77-6.9-5.66-14.59-5.66-23.06s2.03-16.16,6.08-23.06c4.05-6.9,9.65-12.33,16.8-16.3,7.15-3.97,15.06-5.95,23.73-5.95s16.52,1.98,23.56,5.95ZM721.4,110.9c4.56-2.66,8.13-6.3,10.72-10.92,2.59-4.62,3.88-9.8,3.88-15.57s-1.3-10.97-3.88-15.65c-2.59-4.67-6.16-8.34-10.72-11-4.56-2.66-9.65-3.99-15.28-3.99s-10.72,1.33-15.28,3.99c-4.56,2.66-8.16,6.33-10.81,11-2.65,4.67-3.97,9.89-3.97,15.65s1.32,10.95,3.97,15.57c2.64,4.62,6.25,8.26,10.81,10.92,4.56,2.66,9.65,3.99,15.28,3.99s10.72-1.33,15.28-3.99Z"/>
      <path class="st2" d="M841.89,46.93c0,1.09-.34,2.39-1.01,3.91l-51.67,112.14c-1.35,3.37-3.55,5.05-6.59,5.05-1.13,0-2.48-.33-4.05-.98-3.38-1.41-5.07-3.53-5.07-6.36,0-1.3.34-2.61,1.01-3.91l16.89-36.67-38-69.6c-.56-.98-.84-2.12-.84-3.42,0-1.41.45-2.72,1.35-3.91.9-1.19,2.08-2.12,3.55-2.77,1.01-.43,2.14-.65,3.38-.65,3.15,0,5.51,1.52,7.09,4.56l30.9,59.33,27.19-59.17c1.46-3.15,3.66-4.73,6.59-4.73,1.46,0,2.81.27,4.05.82,3.49,1.3,5.23,3.42,5.23,6.36Z"/>
    </g>
  </g>
  <g>
    <path class="st4" d="M139.48,162.29H16.44c-9.08,0-16.44-7.36-16.44-16.44V22.82C0,13.74,7.36,6.38,16.44,6.38h123.03c9.08,0,16.44,7.36,16.44,16.44v123.03c0,9.08-7.36,16.44-16.44,16.44ZM132.29,118.71V50.38c0-11.26-9.13-20.38-20.38-20.38H43.57c-11.26,0-20.38,9.13-20.38,20.38v68.32c0,11.26,9.13,20.38,20.38,20.38h68.34c11.26,0,20.38-9.13,20.38-20.38Z"/>
    <path class="st1" d="M103.05,82.53c3.25,0,5.88-2.63,5.88-5.88v-13.09c0-5.62-4.56-10.18-10.18-10.18h-41.49c-5.62,0-10.18,4.56-10.18,10.18v41.49c0,5.62,4.56,10.18,10.18,10.18h41.49c5.62,0,10.18-4.56,10.18-10.18h0c0-3.24-2.63-5.87-5.87-5.87h-20.53c-2.5,0-4.52-2.02-4.52-4.52v-5.2c0-.84-.68-1.53-1.53-1.53h-12.29c-2.52,0-4.56-2.04-4.56-4.56v-13.55c0-2.52,2.04-4.56,4.56-4.56h13.55c2.52,0,4.56,2.04,4.56,4.56v11.18c0,.84.68,1.53,1.53,1.53h19.23Z"/>
  </g>
</svg>