<?xml version="1.0" encoding="UTF-8"?>
<svg id="OBJECTS" xmlns="http://www.w3.org/2000/svg" version="1.1" viewBox="0 0 500 500">
  <!-- Generator: Adobe Illustrator 29.3.1, SVG Export Plug-In . SVG Version: 2.1.0 Build 151)  -->
  <defs>
    <style>
      .st0 {
        fill: #fff;
      }
    </style>
  </defs>
  <path class="st0" d="M155.37,275.47c-5.15,5.15-5.15,13.49,0,18.64,5.15,5.15,13.49,5.15,18.64,0l75.99-75.99,75.99,75.99c5.15,5.15,13.49,5.15,18.64,0,2.57-2.57,3.86-5.95,3.86-9.32s-1.29-6.75-3.86-9.32l-85.31-85.31c-2.47-2.47-5.82-3.86-9.32-3.86s-6.85,1.39-9.32,3.86l-85.31,85.31Z"/>
  <path class="st0" d="M36.45,250c0,117.75,95.8,213.55,213.55,213.55s213.55-95.8,213.55-213.55S367.75,36.45,250,36.45,36.45,132.25,36.45,250ZM437.19,250c0,103.22-83.97,187.19-187.19,187.19S62.81,353.22,62.81,250,146.78,62.81,250,62.81s187.19,83.97,187.19,187.19Z"/>
</svg>